# xmcd
#
# Track frame offsets:
# 150
# 16774
# 30376
# 43642
# 66628
# 91297
# 105981
# 115973
# 137992
# 151351
# 167762
# 193472
# 207350
#
# Disc length: 3063 seconds
#
# Revision: 1
# Processed by: cddbd v1.5.1PL0 Copyright (c) Steve Scherf et al.
# Submitted via: CedeCatalogueitor 2.6.0.5 http://personales.ya.com/cdcatalogueitor
#
DISCID=b30bf50d
DTITLE=THE TANZANIAN - AFRICAN PRAISE
DYEAR=1900
DGENRE=AFRICAN GOSPEL
TTITLE0=MPOKI JESU
TTITLE1=SIKU ILE
TTITLE2=ANA NI PENDA
TTITLE3=SIFUNI
TTITLE4=KUKU FAKA
TTITLE5=TWAIBONA INSONDA
TTITLE6=UPENDO WA BWANA
TTITLE7=HOSANNA WEWE NI BWANA
TTITLE8=MTU MWENYE MALI
TTITLE9=HALLELUIA JESUS
TTITLE10=JINA LAKO LINULIWA
TTITLE11=UMEINOLEKA
TTITLE12=JESUS CHRIST, SON OF GOD
EXTD=
EXTT0=
EXTT1=
EXTT2=
EXTT3=
EXTT4=
EXTT5=
EXTT6=
EXTT7=
EXTT8=
EXTT9=
EXTT10=
EXTT11=
EXTT12=
PLAYORDER=
